# xmcd CD database file
#
# Track frame offsets:
#	150
#	19337
#	31995
#	45510
#	60745
#	72312
#	87022
#	103750
#	121375
#	146767
#
# Disc length: 2163 seconds
#
# Revision: 2
# Processed by: cddbd v1.4PL0 Copyright (c) Steve Scherf et al.
# Submitted via: CDex 1.40Release
#
DISCID=8808710a
DTITLE=David Allan Coe - Headed For The Country
DYEAR=1990
DGENRE=Country
TTITLE0=I Still Sing The Old Songs
TTITLE1=Would You Be My Lady
TTITLE2=Tennessee Whiskey
TTITLE3=Now I Lay Me Down To Cheat
TTITLE4=Face to Face
TTITLE5=Headed For The Country
TTITLE6=Mona Lisa Lost Her Smile
TTITLE7=Pledging My Love
TTITLE8=Desperados Waiting For A Train
TTITLE9=Willie, Waylon and Me
EXTD=YEAR: 1990 ID3G: 2
EXTT0=
EXTT1=
EXTT2=
EXTT3=
EXTT4=
EXTT5=
EXTT6=
EXTT7=
EXTT8=
EXTT9=
PLAYORDER=
